<svg width="104" height="23" viewBox="0 0 104 23" fill="none" xmlns="http://www.w3.org/2000/svg">
<g id="4 stars">
<g id="Group 29660">
<path id="Fill 1" fill-rule="evenodd" clip-rule="evenodd" d="M0.113281 22.2387H18.7836V3.23877H0.113281V22.2387Z" fill="#00B67A"/>
<path id="Fill 7" fill-rule="evenodd" clip-rule="evenodd" d="M16.2931 10.9H11.0569L9.44736 6.08032L7.83778 10.9H2.60156L6.83943 13.8874L5.22986 18.7071L9.46773 15.7197L12.0757 13.8874L16.2931 10.9ZM9.44719 15.7396L12.4219 15.0027L13.6647 18.7469L9.44719 15.7396Z" fill="white"/>
</g>
<g id="Group 29661">
<path id="Fill 2" fill-rule="evenodd" clip-rule="evenodd" d="M21.2832 22.2387H39.9535V3.23877H21.2832V22.2387Z" fill="#00B67A"/>
<path id="Fill 8" fill-rule="evenodd" clip-rule="evenodd" d="M37.465 10.9H32.2288L30.6192 6.08032L29.0097 10.9H23.7734L28.0113 13.8874L26.4017 18.7071L30.6396 15.7197L33.2475 13.8874L37.465 10.9ZM30.6191 15.7396L33.5938 15.0027L34.8366 18.7469L30.6191 15.7396Z" fill="white"/>
</g>
<g id="Group 29662">
<path id="Fill 3" fill-rule="evenodd" clip-rule="evenodd" d="M42.4531 22.2387H61.1235V3.23877H42.4531V22.2387Z" fill="#00B67A"/>
<path id="Fill 9" fill-rule="evenodd" clip-rule="evenodd" d="M58.633 10.9H53.397L51.7872 6.08032L50.1776 10.9H44.9414L49.1795 13.8874L47.5697 18.7071L51.8076 15.7197L54.4157 13.8874L58.633 10.9ZM51.7872 15.7396L54.7619 15.0027L56.0049 18.7469L51.7872 15.7396Z" fill="white"/>
</g>
<g id="Group 29663">
<path id="Fill 4" fill-rule="evenodd" clip-rule="evenodd" d="M63.625 22.2387H82.2953V3.23877H63.625V22.2387Z" fill="#00B67A"/>
<path id="Fill 10" fill-rule="evenodd" clip-rule="evenodd" d="M79.8068 10.9H74.5707L72.9609 6.08032L71.3513 10.9H66.1152L70.3532 13.8874L68.7434 18.7071L72.9813 15.7197L75.5895 13.8874L79.8068 10.9ZM72.9607 15.7396L75.9354 15.0027L77.1785 18.7469L72.9607 15.7396Z" fill="white"/>
</g>
<g id="Group 29664">
<path id="Fill 5" fill-rule="evenodd" clip-rule="evenodd" d="M93.5078 22.2387H103.465V3.23877H93.5078V22.2387Z" fill="black" fill-opacity="0.2"/>
<path id="Fill 6" fill-rule="evenodd" clip-rule="evenodd" d="M84.7949 22.2387H94.7524V3.23877H84.7949V22.2387Z" fill="#00B67A"/>
<path id="Fill 11" fill-rule="evenodd" clip-rule="evenodd" d="M100.977 10.9H95.7407L94.1308 6.08032L92.5212 10.9H87.2852L91.5231 13.8874L89.9133 18.7071L94.1512 15.7197L96.7594 13.8874L100.977 10.9ZM94.1307 15.7396L97.1054 15.0027L98.3485 18.7469L94.1307 15.7396Z" fill="white"/>
</g>
</g>
</svg>
