 <svg
            width="102"
            height="26"
            viewBox="0 0 475 120"
            fill="none"
            xmlns="http://www.w3.org/2000/svg"
          >
            <path
              vector-effect="non-scaling-stroke"
              d="M452.299 6.47633V4.15039H461.922V6.47633H458.539V15.218H455.662V6.47633H452.299Z"
              fill="#BBBDBF"
            ></path>
            <path
              vector-effect="non-scaling-stroke"
              d="M466.85 4.15039L468.147 8.96238C468.147 9.13561 468.26 9.36659 468.335 9.63606C468.41 9.90553 468.467 10.1942 468.523 10.4637C468.58 10.7332 468.692 11.1182 468.768 11.4646V11.4646C468.823 11.1266 468.898 10.7923 468.993 10.4637C468.993 10.1942 469.106 9.92478 469.181 9.63606C469.256 9.34734 469.313 9.13561 469.369 8.96238L470.685 4.15039H474.295V15.141H471.87V8.34644C471.87 8.05773 471.87 7.74976 471.87 7.4033V7.4033C471.87 7.73051 471.719 8.01923 471.663 8.2887C471.607 8.55817 471.663 8.75065 471.513 8.96238C471.362 9.17411 471.4 9.34734 471.381 9.44358L469.82 15.218H467.752L466.211 9.53982C466.211 9.53982 466.211 9.27035 466.079 9.05862L465.872 8.2887C465.872 8.01923 465.76 7.73051 465.684 7.4033V7.4033C465.684 7.74976 465.684 8.05773 465.684 8.34644C465.684 8.63516 465.684 8.82764 465.684 9.07787C465.684 9.32809 465.684 9.50132 465.684 9.61681V15.141H463.297V4.15039H466.85Z"
              fill="#BBBDBF"
            ></path>
            <path
              vector-effect="non-scaling-stroke"
              fill-rule="evenodd"
              clip-rule="evenodd"
              d="M26.8634 66.2444H40.0106V81.6474C37.6127 83.7428 33.5355 85.0383 29.2898 85.0383C16.7132 85.0383 9.20455 75.7266 9.20455 60.1307C9.20455 45.0017 16.902 35.6007 29.2898 35.6007C34.4614 35.6007 38.3964 37.3266 42.0492 41.2027L42.4472 41.6251L47.7142 35.8017L47.3629 35.4444C42.299 30.2525 36.1873 27.623 29.1964 27.623C11.7325 27.623 0.000488281 40.7642 0.000488281 60.3195C0.000488281 80.1794 11.1639 93.018 28.4391 93.018C36.0513 93.018 43.4056 90.2728 48.1101 85.6738L48.2726 85.5154V58.6444H26.8634V66.2444Z"
              fill="#0A2240"
            ></path>
            <path
              vector-effect="non-scaling-stroke"
              fill-rule="evenodd"
              clip-rule="evenodd"
              d="M69.0519 85.4009C68.2661 85.5735 67.9392 85.5735 67.4843 85.5735C66.4569 85.5735 65.8681 84.538 65.8681 82.741V24.2334H57.131V82.1786C57.131 89.4618 59.9676 93.0009 65.8011 93.0009C67.7788 93.0009 69.2021 92.7573 70.4163 92.207L70.796 92.0344L69.596 85.2771L69.0519 85.4009Z"
              fill="#0A2240"
            ></path>
            <path
              vector-effect="non-scaling-stroke"
              fill-rule="evenodd"
              clip-rule="evenodd"
              d="M95.3438 44.2466C89.4555 44.2466 83.3479 46.2567 77.1936 50.2202L76.7652 50.4963L80.3956 56.7684L80.8728 56.4435C85.5631 53.2354 89.8982 51.674 94.1276 51.674C99.8454 51.674 102.808 55.1704 102.938 62.0659C83.352 64.3136 74.9865 69.5603 74.9865 79.5644C74.9865 87.6029 80.5743 93.0019 88.8931 93.0019C93.5976 93.0019 98.3185 91.0303 103.699 86.8029L104.312 91.8791H111.681V63.4791C111.681 50.8963 106.032 44.2466 95.3438 44.2466M102.944 68.2019V79.9745C98.2515 84.1369 94.9012 85.7613 91.0433 85.7613C88.2758 85.7613 83.6301 84.8821 83.6301 79.0019C83.6301 73.1765 89.4149 69.9339 102.944 68.2019"
              fill="#0A2240"
            ></path>
            <path
              vector-effect="non-scaling-stroke"
              fill-rule="evenodd"
              clip-rule="evenodd"
              d="M134.976 64.6639L134.272 64.3959C129.417 62.5481 125.224 60.9563 125.224 57.3075C125.224 54.404 127.269 51.2994 133.009 51.2994C136.396 51.2994 139.496 52.5075 143.064 55.2141L143.492 55.537L147.772 49.8334L147.372 49.5065C144.948 47.5431 139.847 44.2456 132.915 44.2456C123.254 44.2456 116.765 49.6466 116.765 57.6852C116.765 65.5776 123.945 68.8385 130.67 71.273C135.37 73.0497 140.702 75.0578 140.702 79.3745C140.702 83.4273 137.468 85.9451 132.262 85.9451C126.548 85.9451 122.467 83.2649 119.226 80.6436L118.794 80.2923L114.323 86.2903L114.716 86.6172C119.555 90.6131 126.01 93.003 131.981 93.003C143.847 93.003 149.159 85.9228 149.159 78.9075C149.159 69.9329 141.622 67.1309 134.976 64.6639"
              fill="#0A2240"
            ></path>
            <path
              vector-effect="non-scaling-stroke"
              fill-rule="evenodd"
              clip-rule="evenodd"
              d="M170.409 64.6639L169.705 64.3959C164.85 62.5481 160.657 60.9563 160.657 57.3075C160.657 54.404 162.702 51.2994 168.442 51.2994C171.829 51.2994 174.929 52.5075 178.497 55.2141L178.925 55.537L183.205 49.8334L182.805 49.5065C180.381 47.5431 175.28 44.2456 168.348 44.2456C158.687 44.2456 152.198 49.6466 152.198 57.6852C152.198 65.5776 159.378 68.8385 166.103 71.273C170.805 73.0497 176.135 75.0578 176.135 79.3745C176.135 83.4273 172.901 85.9451 167.695 85.9451C161.981 85.9451 157.9 83.2649 154.659 80.6436L154.226 80.2923L149.755 86.2903L150.149 86.6172C154.988 90.6131 161.443 93.003 167.414 93.003C179.28 93.003 184.592 85.9228 184.592 78.9075C184.592 69.9329 177.055 67.1309 170.409 64.6639"
              fill="#0A2240"
            ></path>
            <path
              vector-effect="non-scaling-stroke"
              fill-rule="evenodd"
              clip-rule="evenodd"
              d="M207.989 44.2466C197.846 44.2466 187.069 52.8232 187.069 68.7197C187.069 83.0161 196.248 93.0019 209.392 93.0019C214.667 93.0019 219.653 91.4466 224.64 88.2425L225.057 87.9765L221.838 81.9786L221.351 82.2892C217.647 84.6588 214.145 85.7613 210.326 85.7613C202.027 85.7613 196.484 80.0618 195.753 70.8415H226.303L226.376 70.3948C226.561 69.2821 226.663 67.7572 226.663 66.0984C226.663 52.4171 219.682 44.2466 207.989 44.2466M218.853 64.7217H195.686C196.705 56.8456 201.777 51.3958 208.175 51.3958C214.927 51.3958 218.705 56.1207 218.853 64.7217"
              fill="#0A2240"
            ></path>
            <path
              vector-effect="non-scaling-stroke"
              fill-rule="evenodd"
              clip-rule="evenodd"
              d="M248.473 64.6639L247.766 64.3959C242.913 62.5481 238.72 60.9563 238.72 57.3075C238.72 54.404 240.765 51.2994 246.505 51.2994C249.892 51.2994 252.993 52.5075 256.558 55.2141L256.986 55.537L261.269 49.8334L260.867 49.5065C258.444 47.5431 253.342 44.2456 246.41 44.2456C236.751 44.2456 230.262 49.6466 230.262 57.6852C230.262 65.5776 237.439 68.8385 244.166 71.273C248.869 73.0497 254.199 75.0578 254.199 79.3745C254.199 83.4273 250.964 85.9451 245.758 85.9451C240.044 85.9451 235.963 83.2649 232.723 80.6436L232.29 80.2923L227.819 86.2903L228.211 86.6172C233.051 90.6131 239.506 93.003 245.476 93.003C257.344 93.003 262.653 85.9228 262.653 78.9075C262.653 69.9329 255.116 67.1309 248.473 64.6639"
              fill="#0A2240"
            ></path>
            <path
              vector-effect="non-scaling-stroke"
              fill-rule="evenodd"
              clip-rule="evenodd"
              d="M305.337 66.193C305.337 78.7432 300.61 85.1047 291.287 85.1047C282.212 85.1047 277.609 78.7432 277.609 66.193V29.4722H268.686V66.0041C268.686 78.3229 272.606 93.0031 291.287 93.0031C309.969 93.0031 313.89 78.3229 313.89 66.0041V29.4722H305.337V66.193Z"
              fill="#3CB4E5"
            ></path>
            <path
              vector-effect="non-scaling-stroke"
              fill-rule="evenodd"
              clip-rule="evenodd"
              d="M347.408 58.1263L338.62 54.3862L338.407 54.2928C333.66 52.2481 328.752 50.1364 328.752 44.6887C328.752 39.5577 333.057 36.244 339.719 36.244C344.768 36.244 349.333 38.1466 353.28 41.8948L353.7 42.2928L358.478 36.4308L358.151 36.0877C353.438 31.1719 346.72 28.3496 339.719 28.3496C328.379 28.3496 319.828 35.576 319.828 45.1557C319.828 52.4593 324.001 57.7892 332.586 61.4481L341.365 65.2796L341.532 65.3547C347.225 67.9212 351.337 69.777 351.337 75.6369C351.337 81.4765 346.634 85.1049 339.063 85.1049C333.126 85.1049 327.097 82.3699 322.527 77.6004L322.119 77.176L316.74 83.4176L317.077 83.7689C322.831 89.7242 330.573 93.0014 338.876 93.0014C351.522 93.0014 360.356 85.5902 360.356 74.979C360.356 65.0806 353.812 60.906 347.408 58.1263"
              fill="#3CB4E5"
            ></path>
            <path
              vector-effect="non-scaling-stroke"
              fill-rule="evenodd"
              clip-rule="evenodd"
              d="M391.328 29.4712H381.771L360.65 91.8793H369.737L375.629 73.1788H397.19L403.079 91.8793H412.447L391.328 29.4712ZM394.892 65.8428H377.931L380.703 57.189C382.64 51.0367 384.478 44.8133 386.455 37.6966C388.441 44.8336 390.275 51.059 392.208 57.189L394.892 65.8428Z"
              fill="#3CB4E5"
            ></path>
            <path
              vector-effect="non-scaling-stroke"
              fill-rule="evenodd"
              clip-rule="evenodd"
              d="M262.648 115.259C263.923 115.259 264.894 116.26 264.894 117.624C264.894 118.991 263.923 119.992 262.648 119.992C261.373 119.992 260.372 118.991 260.372 117.624C260.372 116.26 261.373 115.259 262.648 115.259"
              fill="#0A2240"
            ></path>
            <path
              vector-effect="non-scaling-stroke"
              fill-rule="evenodd"
              clip-rule="evenodd"
              d="M274.762 104.359C276.674 104.359 278.132 105.12 279.133 106.089L277.464 108.302C276.674 107.606 275.886 107.21 274.946 107.21C272.546 107.21 270.875 109.185 270.875 112.188C270.875 115.163 272.518 117.139 274.853 117.139C276.069 117.139 277.099 116.531 277.921 115.865L279.377 118.081C277.98 119.325 276.189 119.991 274.489 119.991C270.42 119.991 267.293 117.139 267.293 112.188C267.293 107.21 270.786 104.359 274.762 104.359"
              fill="#0A2240"
            ></path>
            <path
              vector-effect="non-scaling-stroke"
              fill-rule="evenodd"
              clip-rule="evenodd"
              d="M287.059 104.359C290.793 104.359 294.164 107.21 294.164 112.188C294.164 117.139 290.793 119.991 287.059 119.991C283.354 119.991 279.985 117.139 279.985 112.188C279.985 107.21 283.354 104.359 287.059 104.359M287.059 117.139C289.244 117.139 290.58 115.163 290.58 112.188C290.58 109.185 289.244 107.21 287.059 107.21C284.873 107.21 283.567 109.185 283.567 112.188C283.567 115.163 284.873 117.139 287.059 117.139"
              fill="#0A2240"
            ></path>
            <path
              vector-effect="non-scaling-stroke"
              fill-rule="evenodd"
              clip-rule="evenodd"
              d="M297.017 104.724H299.905L300.144 106.758H300.268C301.513 105.422 302.971 104.358 304.822 104.358C307.005 104.358 308.25 105.357 308.948 107.03C310.376 105.512 311.864 104.358 313.744 104.358C316.902 104.358 318.361 106.513 318.361 110.277V119.629H314.839V110.734C314.839 108.275 314.11 107.366 312.56 107.366C311.62 107.366 310.591 107.973 309.436 109.217V119.629H305.943V110.734C305.943 108.275 305.214 107.366 303.637 107.366C302.727 107.366 301.663 107.973 300.512 109.217V119.629H297.017V104.724Z"
              fill="#0A2240"
            ></path>
            <path
              vector-effect="non-scaling-stroke"
              fill-rule="evenodd"
              clip-rule="evenodd"
              d="M328.315 119.629H391.296H394.79H395.086H397.696C398.012 119.629 398.319 119.57 398.611 119.487C402.439 119.209 408.378 118.395 412.912 115.983C417.691 113.442 424.512 108.787 428.581 97.7246C430.299 93.0526 432.5 85.4079 434.37 78.5835L434.374 78.5876C434.378 78.5693 434.406 78.4576 434.451 78.285C436.339 71.3754 438.189 64.017 439.779 57.4465C441.748 49.8485 443.815 42.0414 445.131 37.481C449.149 23.5845 442.599 20.8069 432.688 16.5957L431.838 16.2383C429.421 15.2089 426.093 14.0881 422.388 12.9734L422.378 12.9571C422.163 12.8962 421.945 12.8353 421.732 12.7764C419.523 12.1145 417.194 11.4607 414.845 10.8251C407.722 8.85154 400.595 7.0688 393.427 5.52362C392.429 5.29215 391.777 5.14595 391.586 5.10128L391.557 5.12159C379.373 2.57133 367.054 0.762198 354.392 0.218035C331.235 -0.776889 307.931 1.63326 285.49 7.44646C281.145 8.57337 276.833 9.78758 272.554 11.1663C264.171 13.8647 255.968 17.1399 247.943 20.7825C245.87 21.7267 243.71 22.7013 241.641 23.7328C240.544 24.283 239.458 24.8495 238.392 25.4526C237.559 25.9236 236.15 26.4211 235.799 27.3774C235.618 27.8668 235.661 28.4211 235.921 28.8698L236.067 29.1236C236.766 30.3317 237.99 30.0089 238.993 29.485C240.469 28.7114 241.968 27.9683 243.474 27.2495C249.066 24.5815 254.845 22.2383 260.636 20.0333C265.253 18.2749 269.931 16.6688 274.66 15.2394C280.353 13.5196 286.12 12.0475 291.935 10.8272C298.715 9.40179 305.564 8.32565 312.449 7.57235C320.327 6.71753 328.256 6.29519 336.179 6.27286C345.18 6.25255 354.175 6.74798 363.123 7.70636C373.251 8.79672 383.312 10.4759 393.257 12.6627C404.52 15.1419 415.639 18.2688 426.575 21.9256C427.107 22.1064 428.262 22.5307 429.233 22.8901L429.897 23.1744C439.722 27.3429 440.528 27.6881 438.268 35.4972C437.775 37.2089 437.017 40.0454 436.144 43.3998L436.104 43.4322C436.098 43.4485 436.002 43.8688 435.834 44.5957C432.912 55.881 428.926 71.952 428.835 72.3236C426.69 80.149 424.043 89.3571 421.874 95.2556C418.688 103.93 413.62 107.515 409.561 109.676C404.043 112.608 394.879 112.825 394.79 112.825H391.296H328.315V119.629Z"
              fill="#EA6852"
            ></path>
          </svg>