<svg width="104" height="26" viewBox="0 0 104 26" fill="none" xmlns="http://www.w3.org/2000/svg">
<g id="trust logo">
<g id="Group 3">
<mask id="mask0_772_2844" style="mask-type:luminance" maskUnits="userSpaceOnUse" x="26" y="8" width="78" height="18">
<path id="Clip 2" fill-rule="evenodd" clip-rule="evenodd" d="M26.8535 8.62573H103.114V25.2387H26.8535V8.62573Z" fill="white"/>
</mask>
<g mask="url(#mask0_772_2844)">
<path id="Fill 1" fill-rule="evenodd" clip-rule="evenodd" d="M97.6061 12.2433H99.1671V9.39429H101.23V12.2433H103.092V13.8064H101.23V18.8755C101.23 19.0975 101.239 19.2825 101.258 19.4489C101.276 19.6063 101.321 19.745 101.385 19.856C101.449 19.967 101.55 20.0502 101.687 20.1058C101.823 20.1613 101.997 20.1889 102.234 20.1889C102.38 20.1889 102.526 20.1889 102.672 20.1798C102.818 20.1705 102.965 20.152 103.111 20.115V21.7338C102.882 21.7614 102.654 21.78 102.444 21.8077C102.225 21.8355 102.006 21.8448 101.778 21.8448C101.23 21.8448 100.792 21.7893 100.463 21.6875C100.135 21.5858 99.87 21.4285 99.6874 21.225C99.4957 21.0214 99.3769 20.7718 99.304 20.4664C99.24 20.1613 99.1944 19.8098 99.1853 19.4213V13.825H97.6243V12.2433H97.6061ZM92.2766 20.335C92.733 20.335 93.1347 20.2332 93.4725 20.039C93.8101 19.8448 94.084 19.5857 94.3032 19.2713C94.5222 18.9568 94.6773 18.596 94.787 18.1982C94.8874 17.8005 94.9422 17.3935 94.9422 16.9773C94.9422 16.5703 94.8874 16.1725 94.787 15.7655C94.6866 15.3585 94.5222 15.0069 94.3032 14.6925C94.084 14.378 93.8101 14.1282 93.4725 13.934C93.1347 13.7398 92.733 13.638 92.2766 13.638C91.8202 13.638 91.4185 13.7398 91.0808 13.934C90.743 14.1282 90.4691 14.3873 90.25 14.6925C90.031 15.0069 89.8758 15.3585 89.7662 15.7655C89.6658 16.1725 89.611 16.5703 89.611 16.9773C89.611 17.3935 89.6658 17.8005 89.7662 18.1982C89.8667 18.596 90.031 18.9568 90.25 19.2713C90.4691 19.5857 90.743 19.8448 91.0808 20.039C91.4185 20.2425 91.8202 20.335 92.2766 20.335ZM92.271 21.9906C91.5224 21.9906 90.8561 21.8612 90.2718 21.6114C89.6876 21.3617 89.1946 21.0102 88.7838 20.5754C88.3822 20.1314 88.0718 19.6042 87.8619 18.9937C87.6519 18.3831 87.5424 17.7079 87.5424 16.9772C87.5424 16.2556 87.6519 15.5897 87.8619 14.9792C88.0718 14.3687 88.3822 13.8414 88.7838 13.3974C89.1855 12.9534 89.6876 12.6112 90.2718 12.3614C90.8561 12.1117 91.5224 11.9822 92.271 11.9822C93.0195 11.9822 93.6859 12.1117 94.2702 12.3614C94.8543 12.6112 95.3473 12.9627 95.7581 13.3974C96.1598 13.8414 96.4702 14.3687 96.68 14.9792C96.8901 15.5897 96.9995 16.2556 96.9995 16.9772C96.9995 17.7079 96.8901 18.3831 96.68 18.9937C96.4702 19.6042 96.1598 20.1314 95.7581 20.5754C95.3564 21.0193 94.8543 21.3617 94.2702 21.6114C93.6859 21.8612 93.0195 21.9906 92.271 21.9906ZM83.8854 21.7325H85.9484V8.62524H83.8854V21.7325ZM79.9786 21.7313H82.0418V12.2408H79.9786V21.7313ZM79.9786 10.6047H82.0418V8.62524H79.9786V10.6047ZM76.3354 16.9957C76.3354 16.5703 76.2806 16.154 76.1711 15.7469C76.0616 15.34 75.8973 14.9885 75.6782 14.674C75.459 14.3594 75.1851 14.1098 74.8656 13.9248C74.5371 13.7398 74.1628 13.638 73.7429 13.638C72.8757 13.638 72.2183 13.9432 71.7803 14.5538C71.3421 15.1643 71.1229 15.9782 71.1229 16.9957C71.1229 17.4768 71.1778 17.9207 71.2964 18.3278C71.4151 18.7348 71.5793 19.0863 71.8168 19.3823C72.045 19.6782 72.3188 19.9094 72.6383 20.076C72.9578 20.2518 73.3321 20.335 73.752 20.335C74.2266 20.335 74.6193 20.2332 74.9479 20.039C75.2764 19.8448 75.5412 19.5857 75.7512 19.2805C75.9611 18.966 76.1163 18.6144 76.2076 18.2168C76.2898 17.819 76.3354 17.4119 76.3354 16.9957ZM69.1276 12.2412H71.081V13.5268H71.1176C71.4097 12.9718 71.8113 12.5834 72.3317 12.3429C72.852 12.1024 73.4088 11.9822 74.0205 11.9822C74.7599 11.9822 75.3989 12.1117 75.9466 12.3799C76.4944 12.6389 76.9508 12.9997 77.3159 13.4622C77.6811 13.9247 77.9458 14.4612 78.1284 15.0717C78.3109 15.6822 78.4022 16.3389 78.4022 17.0327C78.4022 17.6709 78.3201 18.2906 78.1557 18.8827C77.9914 19.4839 77.7449 20.0112 77.4163 20.4737C77.0877 20.9362 76.6678 21.2968 76.1566 21.5743C75.6453 21.8518 75.0519 21.9906 74.3583 21.9906C74.057 21.9906 73.7558 21.9629 73.4544 21.9074C73.1533 21.8518 72.8611 21.7593 72.5872 21.6392C72.3134 21.5189 72.0487 21.3617 71.8205 21.1674C71.5831 20.9731 71.3915 20.7512 71.2271 20.5014H71.1906V25.2374H69.1276V12.2412ZM62.1757 12.2433H63.7367V9.39429H65.7998V12.2433H67.662V13.8064H65.7998V18.8755C65.7998 19.0975 65.8089 19.2825 65.8271 19.4489C65.8455 19.6063 65.8911 19.745 65.955 19.856C66.0189 19.967 66.1193 20.0502 66.2562 20.1058C66.3932 20.1613 66.5666 20.1889 66.804 20.1889C66.95 20.1889 67.0961 20.1889 67.242 20.1798C67.3882 20.1705 67.5342 20.152 67.6803 20.115V21.7338C67.4521 21.7614 67.2239 21.78 67.0138 21.8077C66.7948 21.8355 66.5757 21.8448 66.3475 21.8448C65.7998 21.8448 65.3616 21.7893 65.033 21.6875C64.7044 21.5858 64.4396 21.4285 64.2571 21.225C64.0654 21.0214 63.9467 20.7718 63.8737 20.4664C63.8098 20.1613 63.7641 19.8098 63.755 19.4213V13.825H62.194V12.2433H62.1757ZM55.3611 18.6884C55.425 19.2989 55.6532 19.7243 56.0458 19.9742C56.4474 20.2147 56.922 20.3442 57.4789 20.3442C57.6706 20.3442 57.8897 20.3256 58.1362 20.2979C58.3826 20.2702 58.62 20.2054 58.83 20.1222C59.0491 20.0389 59.2225 19.9093 59.3686 19.7429C59.5055 19.5764 59.5693 19.3637 59.5603 19.0954C59.5511 18.8272 59.4507 18.6052 59.2682 18.4387C59.0856 18.2629 58.8574 18.1334 58.5744 18.0224C58.2913 17.9206 57.9718 17.8281 57.6067 17.7542C57.2415 17.6802 56.8764 17.5968 56.5022 17.5137C56.1188 17.4304 55.7445 17.3193 55.3885 17.1992C55.0325 17.0789 54.713 16.9124 54.43 16.6997C54.147 16.4962 53.9188 16.2279 53.7545 15.9042C53.581 15.5804 53.4988 15.1827 53.4988 14.7017C53.4988 14.1837 53.6267 13.7581 53.8731 13.4067C54.1196 13.0552 54.4391 12.7777 54.8134 12.5649C55.1968 12.3522 55.6167 12.2042 56.0823 12.1117C56.5478 12.0284 56.9951 11.9822 57.415 11.9822C57.8989 11.9822 58.3644 12.0377 58.8026 12.1394C59.2408 12.2412 59.6424 12.4077 59.9984 12.6481C60.3545 12.8793 60.6466 13.1847 60.8839 13.5547C61.1212 13.9247 61.2673 14.3779 61.3312 14.9052H59.1769C59.0765 14.4056 58.8574 14.0634 58.5014 13.8968C58.1453 13.7212 57.7345 13.6379 57.2781 13.6379C57.1321 13.6379 56.9586 13.6472 56.7578 13.6749C56.5569 13.7027 56.3743 13.7489 56.1917 13.8137C56.0184 13.8784 55.8722 13.9802 55.7445 14.1097C55.6258 14.2392 55.5619 14.4056 55.5619 14.6184C55.5619 14.8774 55.6532 15.0809 55.8266 15.2381C56.0001 15.3954 56.2283 15.5249 56.5112 15.6359C56.7943 15.7377 57.1138 15.8302 57.4789 15.9042C57.8441 15.9781 58.2184 16.0614 58.6018 16.1447C58.9759 16.2279 59.3411 16.3389 59.7062 16.4592C60.0714 16.5793 60.3909 16.7459 60.674 16.9587C60.9569 17.1714 61.1852 17.4304 61.3586 17.7449C61.532 18.0593 61.6232 18.4572 61.6232 18.9197C61.6232 19.4839 61.4955 19.9556 61.2399 20.3534C60.9842 20.7418 60.6557 21.0656 60.254 21.3062C59.8524 21.5467 59.396 21.7317 58.903 21.8427C58.4101 21.9537 57.9171 22.0092 57.4333 22.0092C56.8399 22.0092 56.2922 21.9443 55.7902 21.8056C55.2881 21.6668 54.8499 21.4634 54.4848 21.1952C54.1196 20.9177 53.8275 20.5754 53.6175 20.1684C53.4075 19.7614 53.298 19.2712 53.2798 18.7068H55.3611V18.6884ZM51.853 21.7313H49.8264V20.4086H49.7899C49.5343 20.8896 49.16 21.2688 48.658 21.5556C48.1559 21.8423 47.6447 21.9902 47.1243 21.9902C45.892 21.9902 44.9974 21.6851 44.4497 21.0652C43.902 20.4456 43.6281 19.5113 43.6281 18.2626V12.2408H45.6912V18.059C45.6912 18.8915 45.8463 19.4836 46.1658 19.8258C46.4762 20.1681 46.9235 20.3438 47.4895 20.3438C47.9277 20.3438 48.2837 20.279 48.5758 20.1402C48.8679 20.0015 49.1053 19.8258 49.2787 19.5946C49.4613 19.3726 49.5891 19.0951 49.6712 18.7806C49.7534 18.4661 49.7899 18.1238 49.7899 17.7538V12.2501H51.853V21.7313ZM36.8827 12.2412H38.8179V14.0727H38.8544C38.9183 13.8137 39.037 13.5639 39.2105 13.3234C39.3839 13.0829 39.5939 12.8517 39.8403 12.6574C40.0868 12.4539 40.3607 12.2967 40.6619 12.1672C40.9632 12.0469 41.2735 11.9822 41.5839 11.9822C41.8212 11.9822 41.9947 11.9914 42.086 12.0007C42.1773 12.0099 42.2685 12.0284 42.369 12.0377V14.0542C42.2229 14.0264 42.0768 14.0079 41.9217 13.9893C41.7665 13.9709 41.6204 13.9617 41.4744 13.9617C41.1275 13.9617 40.7988 14.0356 40.4885 14.1743C40.1781 14.3131 39.9134 14.5259 39.6851 14.7942C39.4569 15.0717 39.2744 15.4047 39.1374 15.8117C39.0005 16.2187 38.9366 16.6812 38.9366 17.2084V21.7224H36.8735V12.2412H36.8827ZM26.8626 8.62582H37.3332V10.6053H33.2162V21.7331H30.9523V10.6053H26.8535V8.62582H26.8626Z" fill="#0F0F0F"/>
</g>
</g>
<g id="Group 6">
<mask id="mask1_772_2844" style="mask-type:luminance" maskUnits="userSpaceOnUse" x="0" y="0" width="26" height="24">
<path id="Clip 5" fill-rule="evenodd" clip-rule="evenodd" d="M0.533203 0.23877H25.4609V23.8354H0.533203V0.23877Z" fill="white"/>
</mask>
<g mask="url(#mask1_772_2844)">
<path id="Fill 4" fill-rule="evenodd" clip-rule="evenodd" d="M25.4609 9.25672H15.9419L13.0016 0.23877L10.0522 9.25672L0.533203 9.24757L8.24214 14.8266L5.29271 23.8354L13.0016 18.2655L20.7014 23.8354L17.7612 14.8266L25.4609 9.25672Z" fill="#00B67A"/>
</g>
</g>
<path id="Fill 7" fill-rule="evenodd" clip-rule="evenodd" d="M18.3558 17.3593L17.7835 15.1392L13.666 18.8825L18.3558 17.3593Z" fill="#005128"/>
</g>
</svg>
